# xmcd
#
# Track frame offsets:
#	150
#	10156
#	23383
#	35329
#	51158
#	65557
#	82730
#	93826
#	108071
#	122442
#	135629
#
# Disc length: 2007 seconds
#
# Revision: 1
# Processed by: cddbd v1.5.2PL0 Copyright (c) Steve Scherf et al.
# Submitted via: audiograbber 1.83.01
#
DISCID=7307d50b
DTITLE=Bob Nolan - The Sound of a Pioneer
DYEAR=1979
DGENRE=Country
TTITLE0=Tumbling Tumbleweeds
TTITLE1=He Walks With the Wild and The Lonely
TTITLE2=That Old Outlaw Tune
TTITLE3=Cool Water
TTITLE4=Can You Hear Those Pioneers
TTITLE5=Man Walks Among Us
TTITLE6=Texas Plains
TTITLE7=The Touch of God's Hand
TTITLE8=Old Home Town
TTITLE9=Ride Me Down Easy
TTITLE10=Wandering
EXTD=
EXTT0=
EXTT1=
EXTT2=
EXTT3=
EXTT4=
EXTT5=
EXTT6=
EXTT7=
EXTT8=
EXTT9=
EXTT10=
PLAYORDER=
